<svg width="904" height="658" viewBox="0 0 904 658" fill="none" xmlns="http://www.w3.org/2000/svg">
<g clip-path="url(#clip0)">
<path opacity="0.1" d="M63.87 530.57C88.7228 530.57 108.87 523.407 108.87 514.57C108.87 505.733 88.7228 498.57 63.87 498.57C39.0172 498.57 18.87 505.733 18.87 514.57C18.87 523.407 39.0172 530.57 63.87 530.57Z" fill="black"/>
<path opacity="0.1" d="M790.85 596.72C815.703 596.72 835.85 589.557 835.85 580.72C835.85 571.883 815.703 564.72 790.85 564.72C765.997 564.72 745.85 571.883 745.85 580.72C745.85 589.557 765.997 596.72 790.85 596.72Z" fill="black"/>
<path opacity="0.1" d="M532.89 18.43C464.41 44.88 390.18 46.11 321.23 21.21C223.51 -14.07 95.89 -23.1 48.6 138.57C-32.11 414.78 133.01 513.37 133.01 513.37C133.01 513.37 248.29 539.21 312.12 585.9C402.79 652.22 513.83 674.39 618.43 643.29C685.32 623.4 742.65 590.77 759.04 537.38C804.88 388.06 775.78 298.31 858.74 258.94C941.7 219.57 895.54 73.72 836.54 70.41C777.54 67.1 638.54 100.93 595.54 33.64C580.21 9.75002 556.76 9.20001 532.89 18.43Z" fill="#63FF6E"/>
<path d="M789.03 582.99C789.03 582.99 801.03 542.15 786.77 512.09C780.697 499.52 778.865 485.319 781.55 471.62C782.876 465.125 784.794 458.765 787.28 452.62" stroke="#535461" stroke-width="2" stroke-miterlimit="10"/>
<path d="M778.4 433.63C778.4 438.63 787.46 453.15 787.46 453.15C787.46 453.15 796.52 438.64 796.52 433.63C796.52 431.226 795.565 428.92 793.865 427.22C792.165 425.52 789.859 424.565 787.455 424.565C785.051 424.565 782.745 425.52 781.045 427.22C779.345 428.92 778.39 431.226 778.39 433.63H778.4Z" fill="#63FF6E"/>
<path d="M763.42 461.36C766.14 465.56 781.64 472.82 781.64 472.82C781.64 472.82 781.36 455.71 778.64 451.51C777.993 450.511 777.156 449.65 776.176 448.975C775.197 448.299 774.094 447.824 772.93 447.575C771.767 447.326 770.565 447.309 769.395 447.524C768.225 447.74 767.109 448.183 766.11 448.83C765.111 449.477 764.25 450.314 763.575 451.294C762.899 452.273 762.424 453.376 762.175 454.54C761.926 455.704 761.909 456.905 762.124 458.075C762.34 459.245 762.783 460.361 763.43 461.36H763.42Z" fill="#63FF6E"/>
<path d="M764.07 508.73C768.54 510.98 785.58 509.43 785.58 509.43C785.58 509.43 776.7 494.8 772.23 492.55C770.084 491.468 767.597 491.283 765.314 492.035C763.032 492.787 761.142 494.414 760.06 496.56C758.978 498.706 758.792 501.193 759.544 503.476C760.296 505.758 761.924 507.648 764.07 508.73V508.73Z" fill="#63FF6E"/>
<path d="M772.64 544.47C776.64 547.47 793.72 548.79 793.72 548.79C793.72 548.79 787.44 532.87 783.42 529.9C781.488 528.47 779.067 527.867 776.69 528.222C774.313 528.578 772.174 529.863 770.745 531.795C769.315 533.727 768.712 536.148 769.067 538.525C769.423 540.902 770.708 543.04 772.64 544.47V544.47Z" fill="#63FF6E"/>
<path d="M800.66 473.79C797.07 477.28 780.34 480.89 780.34 480.89C780.34 480.89 784.44 464.28 788.03 460.79C789.754 459.115 792.073 458.194 794.476 458.228C796.879 458.263 799.17 459.251 800.845 460.975C802.52 462.699 803.441 465.018 803.407 467.421C803.372 469.824 802.384 472.115 800.66 473.79V473.79Z" fill="#63FF6E"/>
<path d="M810.15 515.7C805.68 517.95 788.64 516.4 788.64 516.4C788.64 516.4 797.52 501.77 801.99 499.57C804.136 498.488 806.623 498.302 808.906 499.054C811.188 499.807 813.078 501.434 814.16 503.58C815.242 505.726 815.427 508.213 814.675 510.495C813.923 512.778 812.296 514.668 810.15 515.75V515.7Z" fill="#63FF6E"/>
<path d="M813.78 557.71C809.78 560.71 792.7 562.03 792.7 562.03C792.7 562.03 798.98 546.11 803 543.14C804.932 541.71 807.353 541.107 809.73 541.462C812.107 541.818 814.245 543.103 815.675 545.035C817.105 546.967 817.708 549.388 817.353 551.765C816.997 554.142 815.712 556.28 813.78 557.71V557.71Z" fill="#63FF6E"/>
<path d="M63.89 514.69C63.89 514.69 89.58 427.57 59.09 363.37C46.29 336.44 42.09 306.22 47.96 277C50.7898 263.141 54.8836 249.571 60.19 236.46" stroke="#535461" stroke-width="2" stroke-miterlimit="10"/>
<path d="M41.22 195.91C41.22 206.59 60.56 237.57 60.56 237.57C60.56 237.57 79.89 206.57 79.89 195.91C79.89 190.781 77.8524 185.862 74.2255 182.235C70.5985 178.608 65.6793 176.57 60.55 176.57C55.4207 176.57 50.5015 178.608 46.8746 182.235C43.2476 185.862 41.21 190.781 41.21 195.91H41.22Z" fill="#63FF6E"/>
<path d="M9.25002 255.08C15.06 264.08 48.13 279.54 48.13 279.54C48.13 279.54 47.53 243.02 41.72 234.06C38.8778 229.886 34.5157 226.989 29.566 225.989C24.6162 224.988 19.4715 225.963 15.2312 228.706C10.9909 231.448 7.99136 235.74 6.87372 240.665C5.75608 245.589 6.60893 250.756 9.25002 255.06V255.08Z" fill="#63FF6E"/>
<path d="M10.64 356.2C20.18 361.01 56.55 357.69 56.55 357.69C56.55 357.69 37.55 326.47 28.06 321.69C25.7921 320.546 23.3211 319.86 20.788 319.671C18.255 319.483 15.7096 319.795 13.2972 320.589C10.8847 321.384 8.65242 322.647 6.72777 324.304C4.80313 325.962 3.22382 327.982 2.08001 330.25C0.936194 332.518 0.250285 334.989 0.0614374 337.522C-0.12741 340.055 0.184506 342.6 0.979376 345.013C2.58469 349.885 6.05972 353.92 10.64 356.23V356.2Z" fill="#63FF6E"/>
<path d="M28.89 432.47C37.48 438.82 73.89 441.69 73.89 441.69C73.89 441.69 60.49 407.69 51.89 401.37C47.7659 398.32 42.5991 397.033 37.5262 397.793C32.4534 398.552 27.89 401.296 24.84 405.42C21.79 409.544 20.5033 414.711 21.2628 419.784C22.0223 424.857 24.7659 429.42 28.89 432.47V432.47Z" fill="#63FF6E"/>
<path d="M88.74 281.57C81.08 289.01 45.38 296.72 45.38 296.72C45.38 296.72 54.12 261.26 61.78 253.82C65.4599 250.24 70.4114 248.268 75.5452 248.338C80.679 248.408 85.5746 250.515 89.155 254.195C92.7354 257.875 94.7074 262.826 94.6371 267.96C94.5667 273.094 92.4599 277.99 88.78 281.57H88.74Z" fill="#63FF6E"/>
<path d="M108.99 371.08C99.45 375.89 63.08 372.57 63.08 372.57C63.08 372.57 82.08 341.35 91.57 336.57C93.8379 335.426 96.309 334.74 98.842 334.551C101.375 334.363 103.92 334.674 106.333 335.469C108.745 336.264 110.978 337.527 112.902 339.184C114.827 340.842 116.406 342.862 117.55 345.13C118.694 347.398 119.38 349.869 119.569 352.402C119.757 354.935 119.446 357.48 118.651 359.893C117.856 362.305 116.594 364.538 114.936 366.462C113.278 368.387 111.258 369.966 108.99 371.11V371.08Z" fill="#63FF6E"/>
<path d="M116.74 460.74C108.15 467.09 71.74 469.96 71.74 469.96C71.74 469.96 85.14 435.96 93.74 429.64C97.8641 426.59 103.031 425.303 108.104 426.063C113.177 426.822 117.74 429.566 120.79 433.69C123.84 437.814 125.127 442.981 124.367 448.054C123.608 453.127 120.864 457.69 116.74 460.74V460.74Z" fill="#63FF6E"/>
<path d="M379.15 299.79L323.42 292.57C321.16 292.28 319.42 291.42 319.48 290.67C319.58 289.92 321.48 289.57 323.79 289.9L379.4 297.95C380.93 298.17 382.09 298.75 382.02 299.26C381.95 299.74 380.67 299.99 379.15 299.79Z" fill="#63FF6E"/>
<path d="M379.5 300.74L323.6 294.96C321.33 294.73 319.4 295.15 319.33 295.9C319.26 296.65 321.07 297.44 323.33 297.64L379.33 302.64C380.87 302.78 382.13 302.48 382.18 301.97C382.22 301.43 381.03 300.9 379.5 300.74Z" fill="#63FF6E"/>
<path d="M463.36 342.79L519.08 335.57C521.34 335.28 523.08 334.42 523.02 333.67C522.92 332.92 521.02 332.57 518.71 332.9L463.1 340.95C461.57 341.17 460.41 341.75 460.48 342.26C460.55 342.74 461.83 342.99 463.36 342.79Z" fill="#63FF6E"/>
<path d="M463 343.74L518.9 337.96C521.17 337.73 523.1 338.15 523.17 338.9C523.24 339.65 521.43 340.44 519.17 340.64L463.17 345.64C461.63 345.78 460.37 345.48 460.32 344.97C460.28 344.43 461.47 343.9 463 343.74Z" fill="#63FF6E"/>
<path d="M279.03 402.64H265.44V597.5H279.03V402.64Z" fill="#40414D"/>
<path d="M575.85 402.64H562.26V597.5H575.85V402.64Z" fill="#40414D"/>
<path d="M260.25 386.78H574.25C580.085 386.78 585.681 389.098 589.806 393.224C593.932 397.349 596.25 402.945 596.25 408.78V411.7H238.25V408.78C238.25 402.945 240.568 397.349 244.694 393.224C248.819 389.098 254.415 386.78 260.25 386.78V386.78Z" fill="#DFE6F5"/>
<path opacity="0.1" d="M259.25 386.78H573.25C579.085 386.78 584.681 389.098 588.806 393.224C592.932 397.349 595.25 402.945 595.25 408.78V411.7H237.25V408.78C237.25 402.945 239.568 397.349 243.694 393.224C247.819 389.098 253.415 386.78 259.25 386.78V386.78Z" fill="black"/>
<path d="M260.25 382.24H574.25C580.085 382.24 585.681 384.558 589.806 388.684C593.932 392.809 596.25 398.405 596.25 404.24V407.16H238.25V404.24C238.25 398.405 240.568 392.809 244.694 388.684C248.819 384.558 254.415 382.24 260.25 382.24Z" fill="#DFE6F5"/>
<path d="M417.25 366.38C432.267 366.38 444.44 354.207 444.44 339.19C444.44 324.173 432.267 312 417.25 312C402.233 312 390.06 324.173 390.06 339.19C390.06 354.207 402.233 366.38 417.25 366.38Z" fill="#FFD77C" stroke="#FFAB50" stroke-miterlimit="10"/>
<path d="M417.25 360.74C429.152 360.74 438.8 351.092 438.8 339.19C438.8 327.288 429.152 317.64 417.25 317.64C405.348 317.64 395.7 327.288 395.7 339.19C395.7 351.092 405.348 360.74 417.25 360.74Z" fill="#FFD77C" stroke="#FFAB50" stroke-miterlimit="10"/>
<path d="M417.25 355.61C426.319 355.61 433.67 348.259 433.67 339.19C433.67 330.121 426.319 322.77 417.25 322.77C408.181 322.77 400.83 330.121 400.83 339.19C400.83 348.259 408.181 355.61 417.25 355.61Z" fill="#FFD77C" stroke="#FFAB50" stroke-miterlimit="10"/>
<path d="M417.25 348.42C422.348 348.42 426.48 344.288 426.48 339.19C426.48 334.092 422.348 329.96 417.25 329.96C412.152 329.96 408.02 334.092 408.02 339.19C408.02 344.288 412.152 348.42 417.25 348.42Z" fill="#FFD77C" stroke="#FFAB50" stroke-miterlimit="10"/>
<path d="M401.39 381.11C416.407 381.11 428.58 368.937 428.58 353.92C428.58 338.903 416.407 326.73 401.39 326.73C386.373 326.73 374.2 338.903 374.2 353.92C374.2 368.937 386.373 381.11 401.39 381.11Z" fill="#FFD77C" stroke="#FFAB50" stroke-miterlimit="10"/>
<path d="M401.39 375.47C413.292 375.47 422.94 365.822 422.94 353.92C422.94 342.018 413.292 332.37 401.39 332.37C389.488 332.37 379.84 342.018 379.84 353.92C379.84 365.822 389.488 375.47 401.39 375.47Z" fill="#FFD77C" stroke="#FFAB50" stroke-miterlimit="10"/>
<path d="M401.39 370.34C410.459 370.34 417.81 362.989 417.81 353.92C417.81 344.851 410.459 337.5 401.39 337.5C392.321 337.5 384.97 344.851 384.97 353.92C384.97 362.989 392.321 370.34 401.39 370.34Z" fill="#FFD77C" stroke="#FFAB50" stroke-miterlimit="10"/>
<path d="M401.39 363.15C406.488 363.15 410.62 359.018 410.62 353.92C410.62 348.822 406.488 344.69 401.39 344.69C396.292 344.69 392.16 348.822 392.16 353.92C392.16 359.018 396.292 363.15 401.39 363.15Z" fill="#FFD77C" stroke="#FFAB50" stroke-miterlimit="10"/>
<path d="M433.11 381.11C448.127 381.11 460.3 368.937 460.3 353.92C460.3 338.903 448.127 326.73 433.11 326.73C418.093 326.73 405.92 338.903 405.92 353.92C405.92 368.937 418.093 381.11 433.11 381.11Z" fill="#FFD77C" stroke="#FFAB50" stroke-miterlimit="10"/>
<path d="M433.11 375.47C445.012 375.47 454.66 365.822 454.66 353.92C454.66 342.018 445.012 332.37 433.11 332.37C421.208 332.37 411.56 342.018 411.56 353.92C411.56 365.822 421.208 375.47 433.11 375.47Z" fill="#FFD77C" stroke="#FFAB50" stroke-miterlimit="10"/>
<path d="M433.11 370.34C442.179 370.34 449.53 362.989 449.53 353.92C449.53 344.851 442.179 337.5 433.11 337.5C424.041 337.5 416.69 344.851 416.69 353.92C416.69 362.989 424.041 370.34 433.11 370.34Z" fill="#FFD77C" stroke="#FFAB50" stroke-miterlimit="10"/>
<path d="M433.11 363.15C438.208 363.15 442.34 359.018 442.34 353.92C442.34 348.822 438.208 344.69 433.11 344.69C428.012 344.69 423.88 348.822 423.88 353.92C423.88 359.018 428.012 363.15 433.11 363.15Z" fill="#FFD77C" stroke="#FFAB50" stroke-miterlimit="10"/>
<path d="M360.6 346H473.89V351.32C473.89 356.573 472.855 361.774 470.845 366.627C468.835 371.48 465.889 375.89 462.174 379.604C458.46 383.319 454.05 386.265 449.197 388.275C444.344 390.285 439.143 391.32 433.89 391.32H400.6C395.347 391.32 390.146 390.285 385.293 388.275C380.44 386.265 376.03 383.319 372.316 379.604C368.601 375.89 365.655 371.48 363.645 366.627C361.635 361.774 360.6 356.573 360.6 351.32V346Z" fill="#63FF6E"/>
<path opacity="0.1" d="M463.67 345.99C463.375 357.807 458.474 369.04 450.013 377.294C441.552 385.548 430.2 390.168 418.38 390.17H395.89C399.171 390.919 402.525 391.302 405.89 391.31H428.55C434.503 391.313 440.399 390.142 445.899 387.866C451.4 385.59 456.399 382.252 460.609 378.043C464.819 373.835 468.159 368.838 470.438 363.338C472.717 357.838 473.89 351.943 473.89 345.99H463.67Z" fill="black"/>
<path d="M569.06 564.64V551.05H274.5V564.64H569.06Z" fill="#40414D"/>
<path d="M164.06 503.59H152.17V611.77H164.06V503.59Z" fill="#40414D"/>
<path d="M257.97 503.59H246.08V611.77H257.97V503.59Z" fill="#40414D"/>
<path d="M267.49 485.76C267.49 492.98 243.01 498.84 212.81 498.84C182.61 498.84 159.32 492.99 159.32 485.76C159.32 478.53 182.61 472.68 212.81 472.68C243.01 472.68 267.49 478.57 267.49 485.76Z" fill="#F6C6CD"/>
<path d="M142.66 485.75H267.48V496.65C267.48 499.435 266.374 502.105 264.405 504.075C262.436 506.044 259.765 507.15 256.98 507.15H160.66C155.886 507.15 151.308 505.254 147.932 501.878C144.556 498.502 142.66 493.924 142.66 489.15V485.75Z" fill="#40414D"/>
<path d="M121.463 360.671L124.038 360.089C125.849 359.68 127.749 360.008 129.318 360.999C130.888 361.991 131.999 363.565 132.408 365.376L163.582 503.481L159.68 504.362C156.405 505.102 152.97 504.509 150.131 502.716C147.293 500.923 145.283 498.076 144.543 494.8L116.157 369.044C115.954 368.146 115.931 367.217 116.088 366.309C116.245 365.402 116.579 364.534 117.072 363.756C117.565 362.978 118.207 362.305 118.96 361.776C119.714 361.246 120.564 360.871 121.463 360.671Z" fill="#40414D"/>
<path d="M672.43 613.69H684.32V505.51H672.43V613.69Z" fill="#40414D"/>
<path d="M578.52 613.69H590.41V505.51H578.52V613.69Z" fill="#40414D"/>
<path d="M569.02 487.68C569.02 494.9 593.5 500.76 623.7 500.76C653.9 500.76 677.19 494.91 677.19 487.68C677.19 480.45 653.89 474.57 623.7 474.57C593.51 474.57 569.02 480.46 569.02 487.68Z" fill="#F6C6CD"/>
<path d="M675.83 509.08H579.51C576.725 509.08 574.055 507.974 572.085 506.005C570.116 504.036 569.01 501.365 569.01 498.58V487.68H693.83V491.08C693.83 495.854 691.934 500.432 688.558 503.808C685.182 507.184 680.604 509.08 675.83 509.08Z" fill="#40414D"/>
<path d="M676.827 506.281L672.926 505.401L704.104 367.276C704.513 365.465 705.624 363.891 707.194 362.899C708.763 361.908 710.663 361.58 712.474 361.989L715.049 362.57C716.86 362.979 718.434 364.091 719.426 365.66C720.417 367.23 720.744 369.129 720.336 370.94L691.945 496.715C691.206 499.987 689.199 502.832 686.365 504.626C683.531 506.419 680.1 507.015 676.827 506.281V506.281Z" fill="#40414D"/>
<path d="M681.06 445.57L684.57 444.46C684.57 444.46 678.57 404.38 678.63 368.46C678.63 367.46 678.63 366.39 678.63 365.36C678.7 363.12 678.78 360.9 678.89 358.73C679.03 355.95 679.06 353.3 679.04 350.73C679.37 316.14 665.74 301.53 665.74 301.53C665.74 301.53 649.74 278.71 640.15 274.27C639.32 271.67 638.37 268.33 637.53 264.45C637.84 264.24 638.14 264.03 638.43 263.81C642.391 260.872 646.18 257.71 649.78 254.34C654.7 249.73 659.42 244.11 659.16 237.77C659.187 237.153 659.167 236.534 659.1 235.92C658.19 228.27 650.24 222.51 647.03 215.26C644.33 209.17 645.14 202.39 642.78 196.21C640.42 190.03 632.18 184.28 625.96 187.53C623.67 188.73 622.29 190.85 620.38 192.46C615.64 196.46 608 196.83 601.52 195.01C595.04 193.19 593.12 185.77 584.06 185.75C584.864 186.02 585.633 186.386 586.35 186.84C585.593 186.712 584.827 186.646 584.06 186.64C585.903 187.223 587.537 188.328 588.765 189.82C589.993 191.313 590.763 193.129 590.98 195.05C590.966 195.291 590.939 195.532 590.9 195.77C587.28 197.72 582.52 196.61 578.18 196.54C573.84 196.47 568.9 198.66 569.33 202.21C569.257 202.613 569.257 203.027 569.33 203.43C569.9 206.12 573.5 208.15 573.94 210.64C573.94 210.71 573.94 210.77 573.94 210.84C565.909 214.853 557.22 217.387 548.29 218.32C548 218.32 548.13 218.67 548.55 219.18H548.29C546.66 219.35 558.06 228.36 559.36 228.95C564.12 231.11 569.81 232.7 574.85 234.36L575.29 234.5C573.592 238.445 572.717 242.695 572.72 246.99C572.72 262.39 583.79 275.33 598.78 278.99C601.58 282.26 604.52 285.85 607.2 289.42H607.01C607.01 289.42 589.78 312.34 590.33 346.57C590.281 350.86 590.508 355.149 591.01 359.41C579.93 358.78 556.12 355.86 538.01 342.6C513.58 324.73 486.33 330.09 492.01 340.81C497.69 351.53 526.78 360.46 531.47 361.36C531.91 361.44 532.93 361.68 534.39 362.04C528.61 363.13 524.65 365.04 524.89 367.61C525.36 372.52 550.26 388.16 565.29 389.05C575.22 389.64 587.17 392.7 596.6 395.39C597.51 415.94 592.54 422.1 592.54 422.1C592.54 422.1 594.02 423.01 596.47 424.3L595.42 427.3C589.32 430.82 581.8 434.49 574.96 435.97C566.244 437.761 557.771 440.581 549.72 444.37L515.89 460.72C512.869 462.122 510.255 464.27 508.295 466.963C506.336 469.656 505.095 472.804 504.69 476.11C503.95 483.04 506.04 491.7 517.36 498.57C518.06 504.2 521.5 510.77 530.53 516.79C548.03 528.43 594.02 563.3 600.28 568.06C600.4 576.57 599.28 593.64 588.78 596.3C575.62 599.64 586.21 612.3 596.85 611.8C599.375 612.755 602.123 612.957 604.76 612.38C616.04 609.7 657.38 595.38 660.2 573.96C660.317 573.031 660.371 572.096 660.36 571.16C660.524 567.508 659.613 563.889 657.74 560.75C658.181 561.718 658.539 562.721 658.81 563.75C655.39 555.95 647.06 551.05 640.58 548.29C640.58 548.22 640.58 548.14 640.58 548.07C639.58 547.68 638.58 547.36 637.76 547.07C637.777 546.49 637.733 545.911 637.63 545.34L572.8 500.67C572.8 500.67 600.99 477.44 630.12 481.02C659.25 484.6 663.89 479.31 663.89 479.31C663.89 479.31 678.83 465.1 680.33 448.74L681.27 448.49C681.27 448.49 681.2 447.46 681.06 445.57Z" fill="url(#paint0_linear)"/>
<path d="M601.89 561.92C601.89 561.92 604.54 591.09 591.28 594.63C578.02 598.17 590.4 612.31 601 609.63C611.6 606.95 650.51 592.83 653.16 571.63C655.81 550.43 626.64 543.34 626.64 543.34L601.89 561.92Z" fill="#B8616E"/>
<path opacity="0.05" d="M601.89 561.92C601.89 561.92 604.54 591.09 591.28 594.63C578.02 598.17 590.4 612.31 601 609.63C611.6 606.95 650.51 592.83 653.16 571.63C655.81 550.43 626.64 543.34 626.64 543.34L601.89 561.92Z" fill="black"/>
<path d="M607.22 562.8C607.22 562.8 609.87 591.97 596.61 595.51C583.35 599.05 595.73 613.19 606.33 610.51C616.93 607.83 655.84 593.71 658.49 572.51C661.14 551.31 631.97 544.22 631.97 544.22L607.22 562.8Z" fill="#B8616E"/>
<path opacity="0.1" d="M634.62 545.12L609.89 563.69C609.89 563.69 610 564.95 610.07 566.96C619.41 564.4 639.76 557.6 640.07 546.96C638.292 546.238 636.472 545.624 634.62 545.12V545.12Z" fill="black"/>
<path d="M619.15 290.95H608.54V298.91H619.15V290.95Z" fill="#F8BDC5"/>
<path d="M608.99 419.57C608.99 419.57 592.14 432.81 578.3 435.95C570.071 437.731 562.094 440.522 554.55 444.26L522.72 460.44C519.829 461.894 517.35 464.05 515.508 466.711C513.667 469.372 512.522 472.452 512.18 475.67C511.27 484.67 514.89 496.51 536.49 503.55L604.56 560.13L625.78 542.45L553.29 486.77L608.99 452.29V419.57Z" fill="#758AC8"/>
<path opacity="0.1" d="M608.99 419.57C608.99 419.57 592.14 432.81 578.3 435.95C570.071 437.731 562.094 440.522 554.55 444.26L522.72 460.44C519.829 461.894 517.35 464.05 515.508 466.711C513.667 469.372 512.522 472.452 512.18 475.67C511.27 484.67 514.89 496.51 536.49 503.55L604.56 560.13L625.78 542.45L553.29 486.77L608.99 452.29V419.57Z" fill="black"/>
<path d="M599.26 360.35C599.26 360.35 566.55 361.23 543.56 343.55C520.57 325.87 494.94 331.17 500.24 341.78C505.54 352.39 532.95 361.23 537.37 362.11C541.79 362.99 605.44 380.68 605.44 380.68L599.26 360.35Z" fill="#F8BDC5"/>
<path opacity="0.05" d="M599.26 360.35C599.26 360.35 566.55 361.23 543.56 343.55C520.57 325.87 494.94 331.17 500.24 341.78C505.54 352.39 532.95 361.23 537.37 362.11C541.79 362.99 605.44 380.68 605.44 380.68L599.26 360.35Z" fill="black"/>
<path d="M602.8 411.63L592.19 443.46C592.19 443.46 532.52 480.15 527.65 485.01C523.87 488.79 518.81 503.58 536.49 515.95C554.17 528.32 602.79 567.23 602.79 567.23C602.79 567.23 639.92 559.23 637.27 544.23L576.27 500.03C576.27 500.03 602.79 477.03 630.2 480.58C657.61 484.13 662.03 478.81 662.03 478.81C662.03 478.81 683.25 457.57 676.17 437.27C669.09 416.97 602.8 411.63 602.8 411.63Z" fill="#758AC8"/>
<path d="M589.54 267.57C589.54 267.57 619.6 300.28 617.83 310C616.06 319.72 641.7 281.71 641.7 281.71C641.7 281.71 633.7 262.26 635.51 241.04L589.54 267.57Z" fill="#F8BDC5"/>
<path opacity="0.1" d="M615.77 297.57C617.821 295.405 619.98 293.346 622.24 291.4C626.763 287.69 630.913 283.547 634.63 279.03C640.82 271.03 663.8 305.55 663.8 305.55C663.8 305.55 677.94 321.46 676.18 359.48C674.42 397.5 678.39 448.33 678.39 448.33L673.04 449.82C668.534 451.324 663.739 451.759 659.036 451.091C654.333 450.422 649.849 448.669 645.94 445.97C638.88 441.09 629.94 435.97 623.14 435.51C609.88 434.63 597.94 427.11 597.94 427.11C597.94 427.11 603.69 413.41 594.85 369.2C586.01 324.99 608.54 293.57 608.54 293.57C608.54 293.57 610.32 303.19 615.77 297.57Z" fill="black"/>
<path d="M681.48 444.34L676.18 446.11L673.03 447.16C668.524 448.665 663.729 449.1 659.026 448.432C654.322 447.764 649.839 446.01 645.93 443.31C638.88 438.44 629.93 433.31 623.13 432.85C609.89 431.96 594.89 422.24 594.89 422.24C594.89 422.24 603.73 410.75 594.89 366.54C586.05 322.33 608.59 290.95 608.59 290.95C608.59 290.95 610.37 300.52 615.82 294.89C617.866 292.727 620.022 290.671 622.28 288.73C626.803 285.021 630.953 280.877 634.67 276.36C640.86 268.36 663.84 302.88 663.84 302.88C663.84 302.88 677.98 318.79 676.22 356.81C676.03 360.81 675.95 364.93 675.94 369.1C675.81 404.68 681.48 444.34 681.48 444.34Z" fill="#63FF6E"/>
<path opacity="0.1" d="M631.09 357.7L631.97 377.15C631.97 377.15 585.11 379.8 575.39 370.08C565.67 360.36 601.89 398.67 609.89 401.02C617.4 403.23 636.79 405.18 646.96 405.38C649.865 405.474 652.735 404.721 655.221 403.214C657.706 401.706 659.7 399.509 660.96 396.89C662.145 394.312 662.529 391.438 662.06 388.64C660.29 377.15 662.06 352.39 662.06 352.39L631.09 357.7Z" fill="black"/>
<path d="M631.09 355.93L631.97 375.38C631.97 375.38 585.11 378.03 575.39 368.31C565.67 358.59 530.5 360.74 531.19 368.31C531.63 373.17 555.06 388.64 569.19 389.53C583.32 390.42 601.89 396.9 609.89 399.25C617.4 401.46 636.79 403.41 646.96 403.61C649.865 403.703 652.735 402.951 655.221 401.444C657.706 399.936 659.7 397.739 660.96 395.12C662.145 392.542 662.529 389.668 662.06 386.87C660.29 375.38 662.06 350.62 662.06 350.62L631.09 355.93Z" fill="#F8BDC5"/>
<path opacity="0.1" d="M641.7 299.35C641.7 299.35 621.37 302 624.02 332.06C626.67 362.12 630.21 364.77 630.21 364.77C630.21 364.77 660.27 362.12 663.8 361.23C667.33 360.34 665.57 327.64 665.57 327.64C665.57 327.64 664.68 298.47 641.7 299.35Z" fill="black"/>
<path d="M641.7 298.47C641.7 298.47 621.37 301.12 624.02 331.18C626.67 361.24 630.21 363.89 630.21 363.89C630.21 363.89 660.27 361.24 663.8 360.35C667.33 359.46 665.57 326.76 665.57 326.76C665.57 326.76 664.68 297.57 641.7 298.47Z" fill="#5E52AD"/>
<path opacity="0.1" d="M634.18 260.01C632.79 253.01 635.64 250.85 636.39 241.89L590.39 268.41C590.39 268.41 595.66 274.15 601.65 281.52C604.327 282.197 607.079 282.533 609.84 282.52C621.89 282.57 628.48 269.63 634.18 260.01Z" fill="black"/>
<path d="M608.98 281.67C627.045 281.67 641.69 267.025 641.69 248.96C641.69 230.895 627.045 216.25 608.98 216.25C590.915 216.25 576.27 230.895 576.27 248.96C576.27 267.025 590.915 281.67 608.98 281.67Z" fill="#F8BDC5"/>
<path opacity="0.1" d="M617.23 239.03C612.23 242.21 612.16 249.4 615.38 254.38C618.6 259.36 624.15 262.65 629.49 265.75C631.04 266.65 632.75 267.58 634.49 267.38C635.828 267.119 637.067 266.493 638.07 265.57C641.807 262.654 645.373 259.526 648.75 256.2C653.61 251.42 658.28 245.53 657.52 238.86C656.66 231.29 649.18 225.59 646.16 218.42C643.62 212.42 644.38 205.69 642.16 199.56C639.94 193.43 632.16 187.76 626.34 190.97C624.19 192.15 622.89 194.26 621.09 195.85C616.63 199.79 609.44 200.18 603.34 198.38C597.24 196.58 595.43 189.23 586.92 189.21C591.15 190.7 594.01 195.11 593.36 199.13C589.95 201.06 585.47 199.96 581.36 199.89C577.25 199.82 572.36 202.12 573.07 205.82C573.69 208.82 578.02 211.05 577.38 214.05C569.868 218.007 561.679 220.518 553.24 221.45C551.71 221.62 562.43 230.53 563.65 231.12C568.12 233.26 573.49 234.83 578.22 236.47C591.07 240.9 604.23 242.48 617.23 239.03Z" fill="black"/>
<path d="M617.23 238.14C612.23 241.32 612.16 248.51 615.38 253.49C618.6 258.47 624.15 261.76 629.49 264.86C631.04 265.76 632.75 266.69 634.49 266.49C635.828 266.229 637.067 265.603 638.07 264.68C641.807 261.764 645.373 258.636 648.75 255.31C653.61 250.53 658.28 244.64 657.52 237.97C656.66 230.4 649.18 224.7 646.16 217.53C643.62 211.53 644.38 204.8 642.16 198.67C639.94 192.54 632.16 186.87 626.34 190.08C624.19 191.26 622.89 193.37 621.09 194.96C616.63 198.9 609.44 199.29 603.34 197.49C597.24 195.69 595.43 188.34 586.92 188.32C591.15 189.81 594.01 194.22 593.36 198.24C589.95 200.17 585.47 199.07 581.36 199C577.25 198.93 572.36 201.23 573.07 204.93C573.69 207.93 578.02 210.16 577.38 213.16C569.868 217.117 561.679 219.628 553.24 220.56C551.71 220.73 562.43 229.64 563.65 230.23C568.12 232.37 573.49 233.94 578.22 235.58C591.07 240.02 604.23 241.57 617.23 238.14Z" fill="#916168"/>
<path opacity="0.1" d="M656.18 559.46C657.6 562.734 658.094 566.335 657.61 569.87C654.96 591.09 616.06 605.23 605.45 607.87C599.86 609.27 593.77 606 591.22 602.07C592.86 606.69 599.92 611.24 606.34 609.64C616.95 606.99 655.85 592.84 658.5 571.64C659.079 567.436 658.264 563.157 656.18 559.46Z" fill="white"/>
<path d="M375.23 583.57C374.44 581.79 370.34 578.32 350.57 577.57C337.03 577.06 332.42 569.91 331.17 562.93C335.62 562.35 339.1 561.55 340.24 560.44C340.24 560.44 340.18 560.12 340.08 559.55L340.24 559.43C339.375 554.395 338.924 549.298 338.89 544.19C338.864 539.819 339.327 535.458 340.27 531.19C340.821 528.368 341.052 525.493 340.96 522.62C341.07 505.62 335.1 475.74 335.1 475.74L334.28 450.91C334.198 447.812 333.282 444.793 331.63 442.171C329.978 439.549 327.649 437.421 324.89 436.01C322.926 434.994 320.751 434.453 318.54 434.43C318.54 434.43 287.2 429.49 258.99 426.8C256.99 425.19 249.94 420.85 233.78 423.34L224.48 396.12C224.405 395.791 224.351 395.456 224.32 395.12C224.65 391.66 226.96 386.45 237.73 386.12L239.98 388.12C239.98 388.12 240.38 387.33 241.05 386.12C254.41 385.97 327.19 385.23 330.94 386.12C335.07 387.12 371.25 379.06 372.29 378.06C386.35 364.35 330.94 371 330.94 371C325.49 371.89 307.88 370.83 289.84 369.36C298.77 355.97 307.17 310.52 307.17 310.52C307.17 310.52 339.17 294.39 329.91 285.32C320.65 276.25 292.7 305.48 292.7 305.48C292.7 305.48 281.33 338.75 276.16 348.83C274.16 352.83 271.57 353.65 269.26 353.19C270.31 352.35 270.99 351.85 270.99 351.85C270.99 351.85 248.25 333.7 246.18 326.65C245.795 325.495 245.285 324.385 244.66 323.34C243.57 316.95 241.66 310.66 237 306.47C236.217 305.63 235.353 304.869 234.42 304.2C233.16 303.3 231.73 302.52 230.54 301.54C231.21 298.46 231.99 295.26 232.8 292.16C249.68 290.16 262.8 276.16 262.8 259.16C262.797 256.596 262.492 254.042 261.89 251.55C264.413 251.716 266.936 251.227 269.213 250.13C271.491 249.033 273.447 247.366 274.89 245.29C278.3 240.21 278.19 233.29 275.33 227.93C274.148 225.754 272.598 223.798 270.75 222.15C267.803 219.182 264.209 216.937 260.25 215.59C256.82 214.4 253.03 213.69 250.31 211.36C249.095 209.77 247.989 208.1 247 206.36C245.859 204.652 244.516 203.087 243 201.7C238 196.55 230.94 193.38 223.75 191.98C214.99 190.27 205.94 190.88 197.03 191.49C193.7 191.72 189.79 192.31 188.29 195.21C187.16 197.39 187.9 200 187.75 202.43C187.28 210.16 178.44 214.43 170.75 216.3C163.06 218.17 153.89 219.79 150.18 226.57C146.81 232.69 149.18 240.11 150.26 246.98C152.059 259.043 149.38 271.347 142.73 281.57C139.35 286.74 134.99 291.34 132.32 296.89C129.362 303.077 128.675 310.108 130.38 316.75C130.88 318.69 131.6 320.67 131.24 322.65C130.831 324.283 130.027 325.79 128.9 327.04C124.302 332.718 118.579 337.384 112.091 340.745C105.603 344.106 98.4908 346.089 91.2 346.57C91.8123 348.6 93.0087 350.405 94.64 351.76C96.7125 353.809 99.1293 355.478 101.78 356.69C108.763 360.192 116.106 362.925 123.68 364.84C128.78 366.13 134.11 367.05 139.3 366.17C144.49 365.29 149.55 362.32 151.68 357.62C152.92 354.9 153.1 351.82 154.2 349.05C156.39 343.51 161.82 339.92 165.49 335.17C164.254 347.41 163.67 359.708 163.74 372.01C163.74 375.86 163.74 379.33 163.74 382.55C163.74 396.44 162.74 406.02 154.13 423.37C153.104 425.194 152.654 427.286 152.84 429.37C152.653 430.496 152.762 431.652 153.156 432.723C153.551 433.794 154.217 434.744 155.09 435.48C154.49 438.941 154.199 442.448 154.22 445.96C154.1 458.6 158.37 475.57 181.01 479.87L221.32 477.87C221.32 477.87 278.17 466.78 293.67 474.87C294.949 475.142 296.097 475.844 296.921 476.86C297.745 477.875 298.197 479.142 298.2 480.45C298.152 481.291 298.021 482.125 297.81 482.94C297.378 485.56 297.214 488.217 297.32 490.87C297.25 507.87 300.91 546.45 300.91 546.45V562.81C298.33 566.69 295.15 572.43 295.56 576.66C295.56 576.75 295.56 576.85 295.56 576.94C295.56 577.03 295.56 577.19 295.62 577.31C295.68 577.43 295.62 577.53 295.69 577.64C295.76 577.75 295.75 577.85 295.78 577.96C295.81 578.07 295.86 578.2 295.91 578.31C295.96 578.42 295.98 578.49 296.02 578.58C296.06 578.67 296.15 578.84 296.22 578.96L296.34 579.17C296.46 579.362 296.594 579.546 296.74 579.72C301.91 585.72 327.74 597.33 336.02 596.86C344.81 596.36 374.26 597.86 375.3 584.76C375.432 584.369 375.407 583.943 375.23 583.57V583.57Z" fill="url(#paint1_linear)"/>
<path d="M301.75 558.25C301.75 558.25 289.75 573.25 294.75 579.25C299.75 585.25 324.75 596.72 332.75 596.25C341.25 595.75 369.75 597.25 370.75 584.25C370.75 584.25 372.75 578.25 346.75 577.25C320.75 576.25 328.75 549.25 328.75 549.25L301.75 558.25Z" fill="#594C76"/>
<path opacity="0.1" d="M158.75 432.25C158.75 432.25 146.75 473.25 182.75 480.25L221.75 478.25C221.75 478.25 276.75 467.25 291.75 475.25C291.75 475.25 297.75 476.25 295.75 484.25C293.75 492.25 298.75 546.25 298.75 546.25V564.25C298.75 564.25 332.75 564.25 336.75 560.25C336.75 560.25 333.75 544.25 336.75 531.25C339.75 518.25 331.75 477.25 331.75 477.25L330.96 452.57C330.901 449.521 330.031 446.542 328.439 443.94C326.846 441.339 324.589 439.209 321.9 437.77C320.007 436.767 317.902 436.232 315.76 436.21C315.76 436.21 247.76 425.21 223.76 427.21C199.76 429.21 158.75 432.25 158.75 432.25Z" fill="black"/>
<path d="M158.75 431.25C158.75 431.25 146.75 472.25 182.75 479.25L221.75 477.25C221.75 477.25 276.75 466.25 291.75 474.25C291.75 474.25 297.75 475.25 295.75 483.25C293.75 491.25 298.75 545.25 298.75 545.25V563.25C298.75 563.25 332.75 563.25 336.75 559.25C336.75 559.25 333.75 543.25 336.75 530.25C339.75 517.25 331.75 476.25 331.75 476.25L330.96 451.57C330.901 448.521 330.031 445.542 328.439 442.94C326.846 440.339 324.589 438.209 321.9 436.77C320.007 435.767 317.902 435.232 315.76 435.21C315.76 435.21 247.76 424.21 223.76 426.21C199.76 428.21 158.75 431.25 158.75 431.25Z" fill="#8B9CD1"/>
<path d="M261.75 350.25C261.75 350.25 269.75 360.25 274.75 350.25C279.75 340.25 290.75 307.25 290.75 307.25C290.75 307.25 317.75 278.25 326.75 287.25C335.75 296.25 304.75 312.25 304.75 312.25C304.75 312.25 293.75 373.25 283.75 374.25C273.75 375.25 258.75 374.25 258.75 374.25L253.75 363.25L261.75 350.25Z" fill="#F8BDC5"/>
<path opacity="0.05" d="M261.75 350.25C261.75 350.25 269.75 360.25 274.75 350.25C279.75 340.25 290.75 307.25 290.75 307.25C290.75 307.25 317.75 278.25 326.75 287.25C335.75 296.25 304.75 312.25 304.75 312.25C304.75 312.25 293.75 373.25 283.75 374.25C273.75 375.25 258.75 374.25 258.75 374.25L253.75 363.25L261.75 350.25Z" fill="black"/>
<path d="M225.75 300.25C225.75 300.25 243.75 321.25 245.75 328.25C247.75 335.25 269.75 353.25 269.75 353.25C269.75 353.25 253.75 365.25 256.75 371.25C259.75 377.25 235.75 351.25 235.75 351.25L207.75 310.25L225.75 300.25Z" fill="#EB6475"/>
<path opacity="0.1" d="M225.75 300.25C225.75 300.25 243.75 321.25 245.75 328.25C247.75 335.25 269.75 353.25 269.75 353.25C269.75 353.25 253.75 365.25 256.75 371.25C259.75 377.25 235.75 351.25 235.75 351.25L207.75 310.25L225.75 300.25Z" fill="black"/>
<path d="M237.75 276.25C237.75 276.25 228.75 305.25 228.75 316.25C228.75 327.25 190.75 313.25 191.75 307.25C192.75 301.25 213.75 279.25 214.75 270.25C215.75 261.25 237.75 276.25 237.75 276.25Z" fill="#F8BDC5"/>
<path opacity="0.1" d="M207.75 296.25C207.75 296.25 172.75 287.25 167.75 338.25C162.75 389.25 171.75 395.25 156.75 426.25C141.75 457.25 258.75 430.25 258.75 430.25C258.75 430.25 252.75 423.25 233.75 426.25L224.75 399.25C224.75 399.25 221.75 387.25 238.75 387.25C255.75 387.25 247.75 352.25 247.75 352.25C247.75 352.25 238.75 322.25 233.75 319.25C228.75 316.25 219.75 298.25 207.75 296.25Z" fill="black"/>
<path d="M207.75 294.25C207.75 294.25 172.75 285.25 167.75 336.25C162.75 387.25 171.75 393.25 156.75 424.25C141.75 455.25 258.75 428.25 258.75 428.25C258.75 428.25 252.75 421.25 233.75 424.25L224.75 397.25C224.75 397.25 221.75 385.25 238.75 385.25C255.75 385.25 247.75 350.25 247.75 350.25C247.75 350.25 238.75 320.25 233.75 317.25C228.75 314.25 219.75 296.25 207.75 294.25Z" fill="#EB6475"/>
<path d="M242.75 366.25C242.75 366.25 315.75 374.25 327.75 372.25C327.75 372.25 381.35 365.65 367.75 379.25C366.75 380.25 331.75 388.25 327.75 387.25C323.75 386.25 238.75 387.25 238.75 387.25L237.75 377.25L242.75 366.25Z" fill="#F8BDC5"/>
<path opacity="0.1" d="M186.75 341.25L239.75 389.25C239.75 389.25 249.75 369.25 252.75 369.25C255.75 369.25 216.75 310.25 216.75 310.25C216.75 310.25 206.75 298.25 200.75 304.25C194.75 310.25 176.75 306.25 186.75 341.25Z" fill="black"/>
<path d="M185.75 339.25L238.75 387.25C238.75 387.25 248.75 367.25 251.75 367.25C254.75 367.25 215.75 308.25 215.75 308.25C215.75 308.25 205.75 296.25 199.75 302.25C193.75 308.25 175.75 304.25 185.75 339.25Z" fill="#EB6475"/>
<path d="M228.75 294.25C246.975 294.25 261.75 279.475 261.75 261.25C261.75 243.025 246.975 228.25 228.75 228.25C210.525 228.25 195.75 243.025 195.75 261.25C195.75 279.475 210.525 294.25 228.75 294.25Z" fill="#F8BDC5"/>
<path opacity="0.1" d="M257.65 252.96C263.25 255.17 270.11 252.52 273.41 247.49C276.71 242.46 276.61 235.61 273.83 230.27C271.05 224.93 265.91 221.05 260.24 219.03C256.8 217.81 252.97 217.11 250.33 214.59C248.66 213 247.67 210.85 246.42 208.91C241.75 201.63 233.42 197.33 224.95 195.64C216.48 193.95 207.72 194.55 199.1 195.15C195.88 195.38 192.1 195.96 190.64 198.84C189.55 201 190.26 203.59 190.12 206C189.67 213.67 181.12 217.92 173.65 219.76C166.18 221.6 157.52 223.33 153.88 230.09C150.62 236.16 152.95 243.52 153.96 250.34C155.687 262.253 153.106 274.391 146.68 284.57C143.41 289.7 139.2 294.26 136.61 299.77C133.745 305.927 133.081 312.882 134.73 319.47C135.22 321.4 135.91 323.36 135.57 325.32C135.178 326.931 134.403 328.423 133.31 329.67C128.927 335.278 123.417 339.904 117.135 343.249C110.853 346.594 103.939 348.584 96.84 349.09C97.98 353.38 102.13 356.09 106.08 358.09C112.82 361.557 119.923 364.267 127.26 366.17C132.19 367.45 137.35 368.36 142.37 367.49C147.39 366.62 152.28 363.67 154.37 359.01C155.57 356.31 155.75 353.26 156.81 350.5C159.2 344.31 165.57 340.57 168.99 334.88C172.26 329.44 173.53 328.8 174.36 322.52C175.19 316.24 177.02 309.46 182.18 305.77C187.58 301.9 195.18 302.64 201.18 305.61C207.18 308.58 210.89 307.42 215.9 311.78C224.689 319.415 234.525 325.753 245.11 330.6C244.11 321.88 242.5 312.15 235.42 306.96C233.42 305.47 230.89 304.33 229.83 302.05C228.14 298.42 231.03 293.99 229.72 290.2C228.41 286.41 223.43 285.01 221.22 281.57C219.34 278.65 219.85 274.68 221.61 271.68C223.37 268.68 226.15 266.46 228.92 264.36C231.38 262.5 233.873 260.683 236.4 258.91C238.683 257.461 240.733 255.674 242.48 253.61C243.48 252.24 244.14 249.24 245.53 248.27C249.03 245.85 254.41 251.69 257.65 252.96Z" fill="black"/>
<path d="M256.65 251.96C262.25 254.17 269.11 251.52 272.41 246.49C275.71 241.46 275.61 234.61 272.83 229.27C270.05 223.93 264.91 220.05 259.24 218.03C255.8 216.81 251.97 216.11 249.33 213.59C247.66 212 246.67 209.85 245.42 207.91C240.75 200.63 232.42 196.33 223.95 194.64C215.48 192.95 206.72 193.55 198.1 194.15C194.88 194.38 191.1 194.96 189.64 197.84C188.55 200 189.26 202.59 189.12 205C188.67 212.67 180.12 216.92 172.65 218.76C165.18 220.6 156.52 222.33 152.88 229.09C149.62 235.16 151.95 242.52 152.96 249.34C154.687 261.253 152.106 273.391 145.68 283.57C142.41 288.7 138.2 293.26 135.61 298.77C132.745 304.927 132.081 311.882 133.73 318.47C134.22 320.4 134.91 322.36 134.57 324.32C134.178 325.931 133.403 327.423 132.31 328.67C127.927 334.278 122.417 338.904 116.135 342.249C109.853 345.594 102.939 347.584 95.84 348.09C96.98 352.38 101.13 355.09 105.08 357.09C111.82 360.557 118.923 363.267 126.26 365.17C131.19 366.45 136.35 367.36 141.37 366.49C146.39 365.62 151.28 362.67 153.37 358.01C154.57 355.31 154.75 352.26 155.81 349.5C158.2 343.31 164.57 339.57 167.99 333.88C171.26 328.44 172.53 327.8 173.36 321.52C174.19 315.24 176.02 308.46 181.18 304.77C186.58 300.9 194.18 301.64 200.18 304.61C206.18 307.58 209.89 306.42 214.9 310.78C223.689 318.415 233.525 324.753 244.11 329.6C243.11 320.88 241.5 311.15 234.42 305.96C232.42 304.47 229.89 303.33 228.83 301.05C227.14 297.42 230.03 292.99 228.72 289.2C227.41 285.41 222.43 284.01 220.22 280.57C218.34 277.65 218.85 273.68 220.61 270.68C222.37 267.68 225.15 265.46 227.92 263.36C230.38 261.5 232.873 259.683 235.4 257.91C237.683 256.461 239.733 254.674 241.48 252.61C242.48 251.24 243.14 248.24 244.53 247.27C248.03 244.85 253.41 250.69 256.65 251.96Z" fill="#916168"/>
<g opacity="0.1">
<path opacity="0.1" d="M327.61 557.13C327.685 554.468 328.068 551.824 328.75 549.25L328.25 549.42C327.751 551.958 327.536 554.544 327.61 557.13V557.13Z" fill="white"/>
<path opacity="0.1" d="M332.75 594.25C324.75 594.72 299.75 583.25 294.75 577.25C294.093 576.437 293.69 575.45 293.59 574.41C293.443 575.253 293.471 576.118 293.67 576.95C293.87 577.782 294.237 578.565 294.75 579.25C299.75 585.25 324.75 596.72 332.75 596.25C341.25 595.75 369.75 597.25 370.75 584.25C370.825 583.891 370.775 583.517 370.61 583.19C368.32 595.17 341.04 593.76 332.75 594.25Z" fill="white"/>
</g>
<path d="M373.25 295.75H372.25V336.75H373.25V295.75Z" fill="#FFD77C" stroke="#FFAB50" stroke-width="0.25" stroke-miterlimit="10"/>
<path d="M374.25 295.75H373.25V336.75H374.25V295.75Z" fill="#FFD77C" stroke="#FFAB50" stroke-width="0.25" stroke-miterlimit="10"/>
<path d="M375.25 295.75H374.25V336.75H375.25V295.75Z" fill="#FFD77C" stroke="#FFAB50" stroke-width="0.25" stroke-miterlimit="10"/>
<path d="M376.25 295.75H375.25V336.75H376.25V295.75Z" fill="#FFD77C" stroke="#FFAB50" stroke-width="0.25" stroke-miterlimit="10"/>
<path d="M377.25 295.75H376.25V336.75H377.25V295.75Z" fill="#FFD77C" stroke="#FFAB50" stroke-width="0.25" stroke-miterlimit="10"/>
<path d="M378.25 295.75H377.25V336.75H378.25V295.75Z" fill="#FFD77C" stroke="#FFAB50" stroke-width="0.25" stroke-miterlimit="10"/>
<path d="M379.25 295.75H378.25V336.75H379.25V295.75Z" fill="#FFD77C" stroke="#FFAB50" stroke-width="0.25" stroke-miterlimit="10"/>
</g>
<defs>
<linearGradient id="paint0_linear" x1="587.89" y1="612.75" x2="587.89" y2="185.75" gradientUnits="userSpaceOnUse">
<stop stop-color="#808080" stop-opacity="0.25"/>
<stop offset="0.54" stop-color="#808080" stop-opacity="0.12"/>
<stop offset="1" stop-color="#808080" stop-opacity="0.1"/>
</linearGradient>
<linearGradient id="paint1_linear" x1="108484" y1="291779" x2="108484" y2="126939" gradientUnits="userSpaceOnUse">
<stop stop-color="#808080" stop-opacity="0.25"/>
<stop offset="0.54" stop-color="#808080" stop-opacity="0.12"/>
<stop offset="1" stop-color="#808080" stop-opacity="0.1"/>
</linearGradient>
<clipPath id="clip0">
<rect width="903.77" height="657.14" fill="white"/>
</clipPath>
</defs>
</svg>
